<mxfile modified="2023-10-29T15:27:51.351Z" host="app.diagrams.net" agent="Mozilla/5.0 (X11; Linux x86_64; rv:109.0) Gecko/20100101 Firefox/119.0" etag="-Sa_kG9uoog9g_lDuZgb" version="22.0.8" type="github">
  <diagram id="WI9T0HZ2pTsCkuznbFz-" name="Page-1">
    <mxGraphModel dx="2074" dy="1157" grid="1" gridSize="10" guides="1" tooltips="1" connect="1" arrows="1" fold="1" page="1" pageScale="1" pageWidth="827" pageHeight="1169" math="0" shadow="0">
      <root>
        <mxCell id="0" />
        <mxCell id="1" parent="0" />
        <mxCell id="K3Dzd5Rzt9y4YdTEhxnG-3" value="" style="rounded=0;whiteSpace=wrap;html=1;fillColor=#F5F8FF;strokeColor=#000000;fontColor=#333333;shadow=1;" vertex="1" parent="1">
          <mxGeometry x="170" y="300" width="610" height="386.5" as="geometry" />
        </mxCell>
        <mxCell id="K3Dzd5Rzt9y4YdTEhxnG-48" value="" style="rounded=0;whiteSpace=wrap;html=1;fillColor=#FEFFF2;strokeColor=#000000;fontColor=#333333;shadow=1;" vertex="1" parent="1">
          <mxGeometry x="280" y="310" width="490" height="340" as="geometry" />
        </mxCell>
        <mxCell id="yIlqXNv4PA9Dnh1hxRCn-74" value="" style="rounded=0;whiteSpace=wrap;html=1;fillColor=#EAEDED;fontSize=22;fontColor=#FFFFFF;strokeColor=none;labelBackgroundColor=none;" parent="1" vertex="1">
          <mxGeometry x="790" y="210" width="539" height="653.5" as="geometry" />
        </mxCell>
        <mxCell id="K3Dzd5Rzt9y4YdTEhxnG-8" value="" style="rounded=0;whiteSpace=wrap;html=1;fillColor=#FFF4F2;strokeColor=#000000;fontColor=#333333;shadow=1;" vertex="1" parent="1">
          <mxGeometry x="510" y="320" width="260" height="290" as="geometry" />
        </mxCell>
        <mxCell id="K3Dzd5Rzt9y4YdTEhxnG-19" value="" style="edgeStyle=orthogonalEdgeStyle;rounded=0;orthogonalLoop=1;jettySize=auto;html=1;" edge="1" parent="1" source="K3Dzd5Rzt9y4YdTEhxnG-5">
          <mxGeometry relative="1" as="geometry">
            <mxPoint x="590" y="383.5999999999999" as="targetPoint" />
          </mxGeometry>
        </mxCell>
        <mxCell id="K3Dzd5Rzt9y4YdTEhxnG-59" value="" style="edgeStyle=orthogonalEdgeStyle;rounded=0;orthogonalLoop=1;jettySize=auto;html=1;" edge="1" parent="1" source="K3Dzd5Rzt9y4YdTEhxnG-22" target="K3Dzd5Rzt9y4YdTEhxnG-56">
          <mxGeometry relative="1" as="geometry" />
        </mxCell>
        <mxCell id="K3Dzd5Rzt9y4YdTEhxnG-22" value="Data Extraction" style="image;sketch=0;aspect=fixed;html=1;points=[];align=center;fontSize=12;image=img/lib/mscae/ClassicStorage.svg;labelPosition=center;verticalLabelPosition=top;verticalAlign=bottom;" vertex="1" parent="1">
          <mxGeometry x="390" y="356" width="50" height="43" as="geometry" />
        </mxCell>
        <mxCell id="K3Dzd5Rzt9y4YdTEhxnG-39" value="" style="edgeStyle=orthogonalEdgeStyle;rounded=0;orthogonalLoop=1;jettySize=auto;html=1;" edge="1" parent="1" source="K3Dzd5Rzt9y4YdTEhxnG-23" target="K3Dzd5Rzt9y4YdTEhxnG-38">
          <mxGeometry relative="1" as="geometry" />
        </mxCell>
        <mxCell id="K3Dzd5Rzt9y4YdTEhxnG-23" value="TRDW" style="image;sketch=0;aspect=fixed;html=1;points=[];align=center;fontSize=12;image=img/lib/mscae/Databricks.svg;labelPosition=center;verticalLabelPosition=top;verticalAlign=bottom;" vertex="1" parent="1">
          <mxGeometry x="530" y="353.5" width="50" height="48" as="geometry" />
        </mxCell>
        <mxCell id="K3Dzd5Rzt9y4YdTEhxnG-25" value="" style="edgeStyle=orthogonalEdgeStyle;rounded=0;orthogonalLoop=1;jettySize=auto;html=1;" edge="1" parent="1" source="K3Dzd5Rzt9y4YdTEhxnG-27" target="K3Dzd5Rzt9y4YdTEhxnG-23">
          <mxGeometry relative="1" as="geometry" />
        </mxCell>
        <mxCell id="K3Dzd5Rzt9y4YdTEhxnG-24" value="WIISE" style="image;sketch=0;aspect=fixed;html=1;points=[];align=center;fontSize=12;image=img/lib/mscae/Databricks.svg;labelPosition=center;verticalLabelPosition=top;verticalAlign=bottom;" vertex="1" parent="1">
          <mxGeometry x="670" y="353.5" width="50" height="48" as="geometry" />
        </mxCell>
        <mxCell id="K3Dzd5Rzt9y4YdTEhxnG-30" value="" style="edgeStyle=orthogonalEdgeStyle;rounded=0;orthogonalLoop=1;jettySize=auto;html=1;" edge="1" parent="1" source="K3Dzd5Rzt9y4YdTEhxnG-26" target="K3Dzd5Rzt9y4YdTEhxnG-27">
          <mxGeometry relative="1" as="geometry" />
        </mxCell>
        <mxCell id="K3Dzd5Rzt9y4YdTEhxnG-26" value="ETL" style="image;sketch=0;aspect=fixed;html=1;points=[];align=right;fontSize=12;image=img/lib/mscae/Container_Instances.svg;labelPosition=left;verticalLabelPosition=middle;verticalAlign=middle;" vertex="1" parent="1">
          <mxGeometry x="600" y="431" width="50" height="50" as="geometry" />
        </mxCell>
        <mxCell id="K3Dzd5Rzt9y4YdTEhxnG-29" value="" style="edgeStyle=orthogonalEdgeStyle;rounded=0;orthogonalLoop=1;jettySize=auto;html=1;" edge="1" parent="1" source="K3Dzd5Rzt9y4YdTEhxnG-24" target="K3Dzd5Rzt9y4YdTEhxnG-27">
          <mxGeometry relative="1" as="geometry">
            <mxPoint x="670" y="378" as="sourcePoint" />
            <mxPoint x="580" y="378" as="targetPoint" />
          </mxGeometry>
        </mxCell>
        <mxCell id="K3Dzd5Rzt9y4YdTEhxnG-27" value="" style="image;sketch=0;aspect=fixed;html=1;points=[];align=center;fontSize=12;image=img/lib/mscae/Cloud_Services_Classic.svg;" vertex="1" parent="1">
          <mxGeometry x="615" y="369.1" width="20" height="16.8" as="geometry" />
        </mxCell>
        <mxCell id="K3Dzd5Rzt9y4YdTEhxnG-58" value="" style="edgeStyle=orthogonalEdgeStyle;rounded=0;orthogonalLoop=1;jettySize=auto;html=1;dashed=1;" edge="1" parent="1" source="K3Dzd5Rzt9y4YdTEhxnG-31" target="K3Dzd5Rzt9y4YdTEhxnG-26">
          <mxGeometry relative="1" as="geometry">
            <Array as="points">
              <mxPoint x="625" y="510" />
            </Array>
          </mxGeometry>
        </mxCell>
        <mxCell id="K3Dzd5Rzt9y4YdTEhxnG-31" value="" style="image;sketch=0;aspect=fixed;html=1;points=[];align=center;fontSize=12;image=img/lib/mscae/Container_Registries.svg;" vertex="1" parent="1">
          <mxGeometry x="670" y="486.5" width="50" height="43" as="geometry" />
        </mxCell>
        <mxCell id="K3Dzd5Rzt9y4YdTEhxnG-33" value="" style="shape=image;verticalLabelPosition=bottom;labelBackgroundColor=#ffffff;verticalAlign=top;aspect=fixed;imageAspect=0;image=data:image/svg+xml,PHN2ZyB4bWxuczpjYz0iaHR0cDovL2NyZWF0aXZlY29tbW9ucy5vcmcvbnMjIiB4bWxuczpkYz0iaHR0cDovL3B1cmwub3JnL2RjL2VsZW1lbnRzLzEuMS8iIHhtbG5zOmlua3NjYXBlPSJodHRwOi8vd3d3Lmlua3NjYXBlLm9yZy9uYW1lc3BhY2VzL2lua3NjYXBlIiB4bWxuczpyZGY9Imh0dHA6Ly93d3cudzMub3JnLzE5OTkvMDIvMjItcmRmLXN5bnRheC1ucyMiIHhtbG5zOnNvZGlwb2RpPSJodHRwOi8vc29kaXBvZGkuc291cmNlZm9yZ2UubmV0L0RURC9zb2RpcG9kaS0wLmR0ZCIgeG1sbnM6c3ZnPSJodHRwOi8vd3d3LnczLm9yZy8yMDAwL3N2ZyIgeG1sbnM9Imh0dHA6Ly93d3cudzMub3JnLzIwMDAvc3ZnIiB4bWxuczp4bGluaz0iaHR0cDovL3d3dy53My5vcmcvMTk5OS94bGluayIgdmVyc2lvbj0iMS4xIiBpZD0ic3ZnMTc1NjcxIiBpbmtzY2FwZTp2ZXJzaW9uPSIwLjkyLjMgKDI0MDU1NDYsIDIwMTgtMDMtMTEpIiBzb2RpcG9kaTpkb2NuYW1lPSJnaXRodWIuc3ZnIiB4PSIwcHgiIHk9IjBweCIgdmlld0JveD0iMCAwIDQ1LjI3IDQ1LjI5IiBzdHlsZT0iZW5hYmxlLWJhY2tncm91bmQ6bmV3IDAgMCA0NS4yNyA0NS4yOTsiIHhtbDpzcGFjZT0icHJlc2VydmUiPiYjeGE7PHNvZGlwb2RpOm5hbWVkdmlldyBib3JkZXJjb2xvcj0iIzY2NjY2NiIgYm9yZGVyb3BhY2l0eT0iMSIgZml0LW1hcmdpbi1ib3R0b209IjAiIGZpdC1tYXJnaW4tbGVmdD0iMCIgZml0LW1hcmdpbi1yaWdodD0iMCIgZml0LW1hcmdpbi10b3A9IjAiIGdyaWR0b2xlcmFuY2U9IjEwIiBndWlkZXRvbGVyYW5jZT0iMTAiIGlkPSJuYW1lZHZpZXcxNzU2NzMiIGlua3NjYXBlOmN1cnJlbnQtbGF5ZXI9InN2ZzE3NTY3MSIgaW5rc2NhcGU6Y3g9IjMwLjE3ODAyNSIgaW5rc2NhcGU6Y3k9IjMwLjE5NDMxOSIgaW5rc2NhcGU6cGFnZW9wYWNpdHk9IjAiIGlua3NjYXBlOnBhZ2VzaGFkb3c9IjIiIGlua3NjYXBlOndpbmRvdy1oZWlnaHQ9IjEwMTciIGlua3NjYXBlOndpbmRvdy1tYXhpbWl6ZWQ9IjEiIGlua3NjYXBlOndpbmRvdy13aWR0aD0iMTkyMCIgaW5rc2NhcGU6d2luZG93LXg9Ii04IiBpbmtzY2FwZTp3aW5kb3cteT0iLTgiIGlua3NjYXBlOnpvb209IjEwLjA5NTE1OCIgb2JqZWN0dG9sZXJhbmNlPSIxMCIgcGFnZWNvbG9yPSIjZmZmZmZmIiBzaG93Z3JpZD0iZmFsc2UiPiYjeGE7CTwvc29kaXBvZGk6bmFtZWR2aWV3PiYjeGE7PGcgaWQ9ImcxNzU2NjkiIHRyYW5zZm9ybT0idHJhbnNsYXRlKC05LjU2MjU0MTcsLTkuNTYxMzEpIj4mI3hhOwk8dGl0bGUgaWQ9InRpdGxlMTc1NjU5Ij5QYWdlLTE8L3RpdGxlPiYjeGE7CTxnIGlkPSJncm91cDIyNTAtMSIgdHJhbnNmb3JtPSJ0cmFuc2xhdGUoOS41NjMwOCwtOS4zNzg2OSkiPiYjeGE7CQk8dGl0bGUgaWQ9InRpdGxlMTc1NjYxIj5HaXRIdWI8L3RpdGxlPiYjeGE7CQk8ZyBpZD0ic2hhcGUyMjUxLTIiPiYjeGE7CQkJPHRpdGxlIGlkPSJ0aXRsZTE3NTY2MyI+U2hlZXQuMjI1MTwvdGl0bGU+JiN4YTsJCQk8cGF0aCBpZD0icGF0aDE3NTY2NSIgaW5rc2NhcGU6Y29ubmVjdG9yLWN1cnZhdHVyZT0iMCIgZD0iTTIyLjYzLDE4Ljk0QzEwLjE0LDE4Ljk0LDAsMjkuMzMsMCw0Mi4xNSAgICAgYy0wLjA3LDkuODksNi4xNSwxOC43MywxNS40OCwyMi4wMWMxLjEzLDAuMjIsMS41NC0wLjUsMS41NC0xLjExYzAtMC42MiwwLTIuMDEsMC0zLjk1Yy02LjI5LDEuNDEtNy42Mi0zLjExLTcuNjItMy4xMSAgICAgYy0xLjAzLTIuNjgtMi41MS0zLjQtMi41MS0zLjRjLTIuMDYtMS40MSwwLjE1LTEuNDEsMC4xNS0xLjQxYzIuMjcsMC4xNiwzLjQ3LDIuMzksMy40NywyLjM5YzIuMDIsMy41NCw1LjMsMi41Miw2LjU4LDEuOTMgICAgIGMwLjEtMS4xNywwLjYtMi4yNiwxLjQyLTMuMUMxMy40OCw1MS44MSw4LjIsNDkuODIsOC4yLDQwLjkyYy0wLjA0LTIuMjksMC43OS00LjUxLDIuMzItNi4yMmMtMC42OS0yLTAuNjEtNC4xOSwwLjIyLTYuMTQgICAgIGMwLDAsMS45MS0wLjYyLDYuMjMsMi40YzMuNy0xLjA0LDcuNjItMS4wNCwxMS4zMiwwYzQuMzItMyw2LjIyLTIuMzcsNi4yMi0yLjM3YzAuODMsMS45NSwwLjkxLDQuMTQsMC4yMiw2LjE0ICAgICBjMS41MywxLjcsMi4zNywzLjkzLDIuMzMsNi4yMmMwLDguOTEtNS4yOSwxMC44OC0xMC4zMywxMS40NWMwLjgxLDAuNzEsMS41MywyLjEyLDEuNTMsNC4zYzAsMy4xMSwwLDUuNjEsMCw2LjM3ICAgICBjMCwwLjYyLDAuNDEsMS4zNCwxLjU2LDEuMTJjOS4zMy0zLjMsMTUuNTMtMTIuMTUsMTUuNDUtMjIuMDRDNDUuMjcsMjkuMzMsMzUuMTMsMTguOTQsMjIuNjMsMTguOTR6Ii8+JiN4YTsJCTwvZz4mI3hhOwk8L2c+JiN4YTs8L2c+JiN4YTs8L3N2Zz4=;" vertex="1" parent="1">
          <mxGeometry x="672.5" y="713.5" width="45" height="45" as="geometry" />
        </mxCell>
        <mxCell id="K3Dzd5Rzt9y4YdTEhxnG-36" style="edgeStyle=orthogonalEdgeStyle;rounded=0;orthogonalLoop=1;jettySize=auto;html=1;exitX=0.5;exitY=1;exitDx=0;exitDy=0;" edge="1" parent="1" source="K3Dzd5Rzt9y4YdTEhxnG-3" target="K3Dzd5Rzt9y4YdTEhxnG-3">
          <mxGeometry relative="1" as="geometry" />
        </mxCell>
        <mxCell id="K3Dzd5Rzt9y4YdTEhxnG-40" value="" style="edgeStyle=orthogonalEdgeStyle;rounded=0;orthogonalLoop=1;jettySize=auto;html=1;" edge="1" parent="1" source="K3Dzd5Rzt9y4YdTEhxnG-38" target="K3Dzd5Rzt9y4YdTEhxnG-22">
          <mxGeometry relative="1" as="geometry" />
        </mxCell>
        <mxCell id="K3Dzd5Rzt9y4YdTEhxnG-38" value="" style="image;sketch=0;aspect=fixed;html=1;points=[];align=center;fontSize=12;image=img/lib/mscae/Cloud_Services_Classic.svg;" vertex="1" parent="1">
          <mxGeometry x="465" y="369.1" width="20" height="16.8" as="geometry" />
        </mxCell>
        <mxCell id="K3Dzd5Rzt9y4YdTEhxnG-46" value="" style="edgeStyle=orthogonalEdgeStyle;rounded=0;orthogonalLoop=1;jettySize=auto;html=1;" edge="1" parent="1" source="K3Dzd5Rzt9y4YdTEhxnG-41" target="K3Dzd5Rzt9y4YdTEhxnG-38">
          <mxGeometry relative="1" as="geometry" />
        </mxCell>
        <mxCell id="K3Dzd5Rzt9y4YdTEhxnG-41" value="&lt;div&gt;IRB&lt;/div&gt;&lt;div&gt;Pull&lt;br&gt;&lt;/div&gt;" style="image;sketch=0;aspect=fixed;html=1;points=[];align=right;fontSize=12;image=img/lib/mscae/Container_Instances.svg;labelPosition=left;verticalLabelPosition=middle;verticalAlign=middle;" vertex="1" parent="1">
          <mxGeometry x="450" y="431" width="50" height="50" as="geometry" />
        </mxCell>
        <mxCell id="K3Dzd5Rzt9y4YdTEhxnG-47" value="" style="edgeStyle=elbowEdgeStyle;rounded=0;orthogonalLoop=1;jettySize=auto;html=1;elbow=vertical;dashed=1;" edge="1" parent="1" source="K3Dzd5Rzt9y4YdTEhxnG-31" target="K3Dzd5Rzt9y4YdTEhxnG-41">
          <mxGeometry relative="1" as="geometry">
            <mxPoint x="728.5" y="547.9839999999999" as="sourcePoint" />
            <mxPoint x="460" y="490" as="targetPoint" />
            <Array as="points">
              <mxPoint x="600" y="510" />
            </Array>
          </mxGeometry>
        </mxCell>
        <mxCell id="K3Dzd5Rzt9y4YdTEhxnG-53" value="" style="edgeStyle=orthogonalEdgeStyle;rounded=0;orthogonalLoop=1;jettySize=auto;html=1;" edge="1" parent="1" source="K3Dzd5Rzt9y4YdTEhxnG-51" target="K3Dzd5Rzt9y4YdTEhxnG-31">
          <mxGeometry relative="1" as="geometry" />
        </mxCell>
        <mxCell id="K3Dzd5Rzt9y4YdTEhxnG-54" value="" style="edgeStyle=orthogonalEdgeStyle;rounded=0;orthogonalLoop=1;jettySize=auto;html=1;" edge="1" parent="1" source="K3Dzd5Rzt9y4YdTEhxnG-51" target="K3Dzd5Rzt9y4YdTEhxnG-33">
          <mxGeometry relative="1" as="geometry" />
        </mxCell>
        <mxCell id="K3Dzd5Rzt9y4YdTEhxnG-51" value="" style="image;sketch=0;aspect=fixed;html=1;points=[];align=center;fontSize=12;image=img/lib/mscae/Cloud_Services_Classic.svg;" vertex="1" parent="1">
          <mxGeometry x="685" y="568" width="20" height="16.8" as="geometry" />
        </mxCell>
        <mxCell id="K3Dzd5Rzt9y4YdTEhxnG-64" value="" style="edgeStyle=orthogonalEdgeStyle;rounded=0;orthogonalLoop=1;jettySize=auto;html=1;" edge="1" parent="1" source="K3Dzd5Rzt9y4YdTEhxnG-56" target="K3Dzd5Rzt9y4YdTEhxnG-62">
          <mxGeometry relative="1" as="geometry" />
        </mxCell>
        <mxCell id="K3Dzd5Rzt9y4YdTEhxnG-56" value="Data&lt;br&gt;Delivery" style="image;sketch=0;aspect=fixed;html=1;points=[];align=center;fontSize=12;image=img/lib/mscae/Container_Instances.svg;labelPosition=center;verticalLabelPosition=top;verticalAlign=bottom;" vertex="1" parent="1">
          <mxGeometry x="300" y="352.5" width="50" height="50" as="geometry" />
        </mxCell>
        <mxCell id="K3Dzd5Rzt9y4YdTEhxnG-57" value="" style="edgeStyle=elbowEdgeStyle;rounded=0;orthogonalLoop=1;jettySize=auto;html=1;elbow=vertical;dashed=1;" edge="1" target="K3Dzd5Rzt9y4YdTEhxnG-56" parent="1">
          <mxGeometry relative="1" as="geometry">
            <mxPoint x="485" y="510" as="sourcePoint" />
            <mxPoint x="250" y="490" as="targetPoint" />
            <Array as="points">
              <mxPoint x="390" y="510" />
            </Array>
          </mxGeometry>
        </mxCell>
        <mxCell id="K3Dzd5Rzt9y4YdTEhxnG-66" value="" style="edgeStyle=orthogonalEdgeStyle;rounded=0;orthogonalLoop=1;jettySize=auto;html=1;" edge="1" parent="1" source="K3Dzd5Rzt9y4YdTEhxnG-62" target="K3Dzd5Rzt9y4YdTEhxnG-65">
          <mxGeometry relative="1" as="geometry" />
        </mxCell>
        <mxCell id="K3Dzd5Rzt9y4YdTEhxnG-62" value="Researcher&lt;br&gt;Browser" style="verticalLabelPosition=top;sketch=0;aspect=fixed;html=1;verticalAlign=bottom;strokeColor=none;align=center;outlineConnect=0;shape=mxgraph.citrix.browser;labelPosition=center;" vertex="1" parent="1">
          <mxGeometry x="210" y="351.25" width="34.4" height="52.5" as="geometry" />
        </mxCell>
        <mxCell id="K3Dzd5Rzt9y4YdTEhxnG-65" value="Researcher&lt;br&gt;Computer" style="verticalLabelPosition=top;sketch=0;aspect=fixed;html=1;verticalAlign=bottom;strokeColor=none;align=center;outlineConnect=0;shape=mxgraph.citrix.desktop;labelPosition=center;" vertex="1" parent="1">
          <mxGeometry x="100" y="352.5" width="45.41" height="50" as="geometry" />
        </mxCell>
        <mxCell id="K3Dzd5Rzt9y4YdTEhxnG-69" value="&lt;div&gt;TRDW&lt;/div&gt;&lt;div&gt;Admin&lt;br&gt;&lt;/div&gt;" style="image;sketch=0;aspect=fixed;html=1;points=[];align=right;fontSize=12;image=img/lib/mscae/Container_Instances.svg;labelPosition=left;verticalLabelPosition=middle;verticalAlign=middle;fontStyle=0" vertex="1" parent="1">
          <mxGeometry x="560" y="535" width="50" height="50" as="geometry" />
        </mxCell>
        <mxCell id="K3Dzd5Rzt9y4YdTEhxnG-71" value="" style="edgeStyle=orthogonalEdgeStyle;rounded=0;orthogonalLoop=1;jettySize=auto;html=1;dashed=1;" edge="1" parent="1" target="K3Dzd5Rzt9y4YdTEhxnG-69">
          <mxGeometry relative="1" as="geometry">
            <mxPoint x="670" y="510" as="sourcePoint" />
            <mxPoint x="635" y="491" as="targetPoint" />
            <Array as="points">
              <mxPoint x="670" y="511" />
              <mxPoint x="585" y="511" />
            </Array>
          </mxGeometry>
        </mxCell>
        <mxCell id="K3Dzd5Rzt9y4YdTEhxnG-73" value="&lt;div&gt;Researcher&lt;/div&gt;" style="aspect=fixed;html=1;perimeter=none;align=center;shadow=0;dashed=0;image;fontSize=12;image=img/lib/mscae/PersonWithFriend.svg;" vertex="1" parent="1">
          <mxGeometry x="70" y="420" width="50" height="49.5" as="geometry" />
        </mxCell>
        <mxCell id="K3Dzd5Rzt9y4YdTEhxnG-80" value="" style="edgeStyle=orthogonalEdgeStyle;rounded=0;orthogonalLoop=1;jettySize=auto;html=1;exitX=1.06;exitY=0.611;exitDx=0;exitDy=0;exitPerimeter=0;" edge="1" parent="1" source="K3Dzd5Rzt9y4YdTEhxnG-75" target="K3Dzd5Rzt9y4YdTEhxnG-33">
          <mxGeometry relative="1" as="geometry">
            <mxPoint x="590" y="740" as="sourcePoint" />
          </mxGeometry>
        </mxCell>
        <mxCell id="K3Dzd5Rzt9y4YdTEhxnG-81" value="" style="edgeStyle=orthogonalEdgeStyle;rounded=0;orthogonalLoop=1;jettySize=auto;html=1;" edge="1" parent="1" target="K3Dzd5Rzt9y4YdTEhxnG-69">
          <mxGeometry relative="1" as="geometry">
            <mxPoint x="585" y="704" as="sourcePoint" />
          </mxGeometry>
        </mxCell>
        <mxCell id="K3Dzd5Rzt9y4YdTEhxnG-75" value="CTSI&lt;br&gt;&lt;div&gt;Staff&lt;/div&gt;" style="aspect=fixed;html=1;perimeter=none;align=center;shadow=0;dashed=0;image;fontSize=12;image=img/lib/mscae/PersonWithFriend.svg;" vertex="1" parent="1">
          <mxGeometry x="560" y="706.5" width="50" height="49.5" as="geometry" />
        </mxCell>
        <mxCell id="K3Dzd5Rzt9y4YdTEhxnG-79" value="Active&lt;br&gt;Directory" style="image;sketch=0;aspect=fixed;html=1;points=[];align=center;fontSize=12;image=img/lib/mscae/Azure_AD_B2C.svg;" vertex="1" parent="1">
          <mxGeometry x="202" y="551" width="50" height="46" as="geometry" />
        </mxCell>
        <mxCell id="K3Dzd5Rzt9y4YdTEhxnG-85" value="" style="edgeStyle=orthogonalEdgeStyle;rounded=0;orthogonalLoop=1;jettySize=auto;html=1;entryX=0.2;entryY=-0.08;entryDx=0;entryDy=0;entryPerimeter=0;" edge="1" parent="1" source="K3Dzd5Rzt9y4YdTEhxnG-23" target="K3Dzd5Rzt9y4YdTEhxnG-69">
          <mxGeometry relative="1" as="geometry">
            <mxPoint x="595" y="714" as="sourcePoint" />
            <mxPoint x="595" y="595" as="targetPoint" />
          </mxGeometry>
        </mxCell>
        <mxCell id="yIlqXNv4PA9Dnh1hxRCn-62" value="10" style="ellipse;whiteSpace=wrap;html=1;aspect=fixed;fillColor=#4D9900;strokeColor=none;labelBackgroundColor=none;" parent="1" vertex="1">
          <mxGeometry x="613.5" y="444.5" width="23" height="23" as="geometry" />
        </mxCell>
        <mxCell id="yIlqXNv4PA9Dnh1hxRCn-63" value="12" style="ellipse;whiteSpace=wrap;html=1;aspect=fixed;fillColor=#4D9900;strokeColor=none;labelBackgroundColor=none;" parent="1" vertex="1">
          <mxGeometry x="313.5" y="362.9" width="23" height="23" as="geometry" />
        </mxCell>
        <mxCell id="yIlqXNv4PA9Dnh1hxRCn-64" value="9" style="ellipse;whiteSpace=wrap;html=1;aspect=fixed;fillColor=#4D9900;strokeColor=none;labelBackgroundColor=none;" parent="1" vertex="1">
          <mxGeometry x="685" y="496.5" width="23" height="23" as="geometry" />
        </mxCell>
        <mxCell id="yIlqXNv4PA9Dnh1hxRCn-65" value="1" style="ellipse;whiteSpace=wrap;html=1;aspect=fixed;fillColor=#4D9900;strokeColor=none;labelBackgroundColor=none;" parent="1" vertex="1">
          <mxGeometry x="685" y="362.9" width="23" height="23" as="geometry" />
        </mxCell>
        <mxCell id="yIlqXNv4PA9Dnh1hxRCn-66" value="2" style="ellipse;whiteSpace=wrap;html=1;aspect=fixed;fillColor=#4D9900;strokeColor=none;labelBackgroundColor=none;" parent="1" vertex="1">
          <mxGeometry x="543.5" y="362.9" width="23" height="23" as="geometry" />
        </mxCell>
        <mxCell id="yIlqXNv4PA9Dnh1hxRCn-67" value="4" style="ellipse;whiteSpace=wrap;html=1;aspect=fixed;fillColor=#4D9900;strokeColor=none;labelBackgroundColor=none;" parent="1" vertex="1">
          <mxGeometry x="111.19999999999999" y="366" width="23" height="23" as="geometry" />
        </mxCell>
        <mxCell id="yIlqXNv4PA9Dnh1hxRCn-68" value="3" style="ellipse;whiteSpace=wrap;html=1;aspect=fixed;fillColor=#4D9900;strokeColor=none;labelBackgroundColor=none;" parent="1" vertex="1">
          <mxGeometry x="403.5" y="362.9" width="23" height="23" as="geometry" />
        </mxCell>
        <mxCell id="yIlqXNv4PA9Dnh1hxRCn-69" value="8" style="ellipse;whiteSpace=wrap;html=1;aspect=fixed;fillColor=#4D9900;strokeColor=none;labelBackgroundColor=none;" parent="1" vertex="1">
          <mxGeometry x="683.5" y="724.5" width="23" height="23" as="geometry" />
        </mxCell>
        <mxCell id="yIlqXNv4PA9Dnh1hxRCn-70" value="7" style="ellipse;whiteSpace=wrap;html=1;aspect=fixed;fillColor=#4D9900;strokeColor=none;labelBackgroundColor=none;" parent="1" vertex="1">
          <mxGeometry x="513.5" y="587" width="23" height="23" as="geometry" />
        </mxCell>
        <mxCell id="yIlqXNv4PA9Dnh1hxRCn-71" value="6" style="ellipse;whiteSpace=wrap;html=1;aspect=fixed;fillColor=#4D9900;strokeColor=none;labelBackgroundColor=none;" parent="1" vertex="1">
          <mxGeometry x="290" y="620" width="23" height="23" as="geometry" />
        </mxCell>
        <mxCell id="yIlqXNv4PA9Dnh1hxRCn-72" value="13" style="ellipse;whiteSpace=wrap;html=1;aspect=fixed;fillColor=#4D9900;strokeColor=none;labelBackgroundColor=none;" parent="1" vertex="1">
          <mxGeometry x="573.5" y="545" width="23" height="23" as="geometry" />
        </mxCell>
        <mxCell id="yIlqXNv4PA9Dnh1hxRCn-73" value="11" style="ellipse;whiteSpace=wrap;html=1;aspect=fixed;fillColor=#4D9900;strokeColor=none;labelBackgroundColor=none;" parent="1" vertex="1">
          <mxGeometry x="462" y="444.5" width="23" height="23" as="geometry" />
        </mxCell>
        <mxCell id="K3Dzd5Rzt9y4YdTEhxnG-92" value="5" style="ellipse;whiteSpace=wrap;html=1;aspect=fixed;fillColor=#4D9900;strokeColor=none;labelBackgroundColor=none;" vertex="1" parent="1">
          <mxGeometry x="179" y="654.5" width="23" height="23" as="geometry" />
        </mxCell>
        <mxCell id="K3Dzd5Rzt9y4YdTEhxnG-94" value="" style="group" vertex="1" connectable="0" parent="1">
          <mxGeometry x="810.5" y="270.5" width="499" height="40" as="geometry" />
        </mxCell>
        <mxCell id="yIlqXNv4PA9Dnh1hxRCn-95" value="The Tufts Research Data Warehouse in Databricks on Azure. This is transformed data, both with PHI and a &quot;green&quot; without PHI." style="text;html=1;align=left;verticalAlign=top;spacingTop=-4;fontSize=14;labelBackgroundColor=none;whiteSpace=wrap;" parent="K3Dzd5Rzt9y4YdTEhxnG-94" vertex="1">
          <mxGeometry x="50" width="449" height="40" as="geometry" />
        </mxCell>
        <mxCell id="yIlqXNv4PA9Dnh1hxRCn-96" value="2" style="ellipse;whiteSpace=wrap;html=1;aspect=fixed;fillColor=#4D9900;strokeColor=none;labelBackgroundColor=none;" parent="K3Dzd5Rzt9y4YdTEhxnG-94" vertex="1">
          <mxGeometry y="6.5" width="23" height="23" as="geometry" />
        </mxCell>
        <mxCell id="K3Dzd5Rzt9y4YdTEhxnG-95" value="" style="group" vertex="1" connectable="0" parent="1">
          <mxGeometry x="810" y="221" width="499" height="42.5" as="geometry" />
        </mxCell>
        <mxCell id="yIlqXNv4PA9Dnh1hxRCn-75" value="The WIISE archive in Databricks on Azure. We have pull data from Clarity mirror and the WIISE FHIR archive among other data sources." style="text;html=1;align=left;verticalAlign=top;spacingTop=-4;fontSize=14;labelBackgroundColor=none;whiteSpace=wrap;" parent="K3Dzd5Rzt9y4YdTEhxnG-95" vertex="1">
          <mxGeometry x="50" width="449" height="42.5" as="geometry" />
        </mxCell>
        <mxCell id="yIlqXNv4PA9Dnh1hxRCn-82" value="1" style="ellipse;whiteSpace=wrap;html=1;aspect=fixed;fillColor=#4D9900;strokeColor=none;labelBackgroundColor=none;" parent="K3Dzd5Rzt9y4YdTEhxnG-95" vertex="1">
          <mxGeometry y="6.5" width="23" height="23" as="geometry" />
        </mxCell>
        <mxCell id="K3Dzd5Rzt9y4YdTEhxnG-103" value="" style="group" vertex="1" connectable="0" parent="1">
          <mxGeometry x="810.5" y="319.5" width="499" height="40" as="geometry" />
        </mxCell>
        <mxCell id="K3Dzd5Rzt9y4YdTEhxnG-104" value="A reduced dataset on Azure Files, subject to IRB specification. Mostly deidentified with the exception of a &quot;keyfile&quot; that associates to MRN." style="text;html=1;align=left;verticalAlign=top;spacingTop=-4;fontSize=14;labelBackgroundColor=none;whiteSpace=wrap;" vertex="1" parent="K3Dzd5Rzt9y4YdTEhxnG-103">
          <mxGeometry x="50" width="449" height="40" as="geometry" />
        </mxCell>
        <mxCell id="K3Dzd5Rzt9y4YdTEhxnG-105" value="3" style="ellipse;whiteSpace=wrap;html=1;aspect=fixed;fillColor=#4D9900;strokeColor=none;labelBackgroundColor=none;" vertex="1" parent="K3Dzd5Rzt9y4YdTEhxnG-103">
          <mxGeometry y="6.5" width="23" height="23" as="geometry" />
        </mxCell>
        <mxCell id="K3Dzd5Rzt9y4YdTEhxnG-109" value="" style="group" vertex="1" connectable="0" parent="1">
          <mxGeometry x="810.5" y="367.5" width="499" height="40" as="geometry" />
        </mxCell>
        <mxCell id="K3Dzd5Rzt9y4YdTEhxnG-110" value="Data leaves enclave. The keyfile encrypted using 7zip AES. Timeseries may be exact or timeshifted depending upon IRB Form 7 procedure." style="text;html=1;align=left;verticalAlign=top;spacingTop=-4;fontSize=14;labelBackgroundColor=none;whiteSpace=wrap;" vertex="1" parent="K3Dzd5Rzt9y4YdTEhxnG-109">
          <mxGeometry x="50" width="449" height="40" as="geometry" />
        </mxCell>
        <mxCell id="K3Dzd5Rzt9y4YdTEhxnG-111" value="4" style="ellipse;whiteSpace=wrap;html=1;aspect=fixed;fillColor=#4D9900;strokeColor=none;labelBackgroundColor=none;" vertex="1" parent="K3Dzd5Rzt9y4YdTEhxnG-109">
          <mxGeometry y="6.5" width="23" height="23" as="geometry" />
        </mxCell>
        <mxCell id="K3Dzd5Rzt9y4YdTEhxnG-115" value="" style="group" vertex="1" connectable="0" parent="1">
          <mxGeometry x="810.5" y="416.5" width="499" height="40" as="geometry" />
        </mxCell>
        <mxCell id="K3Dzd5Rzt9y4YdTEhxnG-116" value="All access is authenticated though Tufts SSO. This is configured at the Azure level using Terraform scripts." style="text;html=1;align=left;verticalAlign=top;spacingTop=-4;fontSize=14;labelBackgroundColor=none;whiteSpace=wrap;" vertex="1" parent="K3Dzd5Rzt9y4YdTEhxnG-115">
          <mxGeometry x="50" width="449" height="40" as="geometry" />
        </mxCell>
        <mxCell id="K3Dzd5Rzt9y4YdTEhxnG-117" value="5" style="ellipse;whiteSpace=wrap;html=1;aspect=fixed;fillColor=#4D9900;strokeColor=none;labelBackgroundColor=none;" vertex="1" parent="K3Dzd5Rzt9y4YdTEhxnG-115">
          <mxGeometry y="6.5" width="23" height="23" as="geometry" />
        </mxCell>
        <mxCell id="K3Dzd5Rzt9y4YdTEhxnG-118" value="" style="group" vertex="1" connectable="0" parent="1">
          <mxGeometry x="810.5" y="464.5" width="499" height="40" as="geometry" />
        </mxCell>
        <mxCell id="K3Dzd5Rzt9y4YdTEhxnG-119" value="Access to TRDW via &quot;CTSI Green&quot; databricks group. Researchers have access to extractions as governed by ACL in Data Delivery container." style="text;html=1;align=left;verticalAlign=top;spacingTop=-4;fontSize=14;labelBackgroundColor=none;whiteSpace=wrap;" vertex="1" parent="K3Dzd5Rzt9y4YdTEhxnG-118">
          <mxGeometry x="50" width="449" height="40" as="geometry" />
        </mxCell>
        <mxCell id="K3Dzd5Rzt9y4YdTEhxnG-120" value="6" style="ellipse;whiteSpace=wrap;html=1;aspect=fixed;fillColor=#4D9900;strokeColor=none;labelBackgroundColor=none;" vertex="1" parent="K3Dzd5Rzt9y4YdTEhxnG-118">
          <mxGeometry y="6.5" width="23" height="23" as="geometry" />
        </mxCell>
        <mxCell id="K3Dzd5Rzt9y4YdTEhxnG-121" value="" style="group" vertex="1" connectable="0" parent="1">
          <mxGeometry x="810.5" y="512.5" width="499" height="40" as="geometry" />
        </mxCell>
        <mxCell id="K3Dzd5Rzt9y4YdTEhxnG-122" value="Access to WIISE via &quot;CTSI Staff&quot; databricks group. Staff access to Admin web portal configured directly in Azure duplicated by nginx ACL." style="text;html=1;align=left;verticalAlign=top;spacingTop=-4;fontSize=14;labelBackgroundColor=none;whiteSpace=wrap;" vertex="1" parent="K3Dzd5Rzt9y4YdTEhxnG-121">
          <mxGeometry x="50" width="449" height="40" as="geometry" />
        </mxCell>
        <mxCell id="K3Dzd5Rzt9y4YdTEhxnG-123" value="7" style="ellipse;whiteSpace=wrap;html=1;aspect=fixed;fillColor=#4D9900;strokeColor=none;labelBackgroundColor=none;" vertex="1" parent="K3Dzd5Rzt9y4YdTEhxnG-121">
          <mxGeometry y="6.5" width="23" height="23" as="geometry" />
        </mxCell>
        <mxCell id="K3Dzd5Rzt9y4YdTEhxnG-125" value="" style="group" vertex="1" connectable="0" parent="1">
          <mxGeometry x="810.5" y="561.5" width="499" height="40" as="geometry" />
        </mxCell>
        <mxCell id="K3Dzd5Rzt9y4YdTEhxnG-126" value="Code is kept in private TuftsCTSI GitHub repository with 2FA. Code is pulled from GitHub, but GitHub does not push to our enclave." style="text;html=1;align=left;verticalAlign=top;spacingTop=-4;fontSize=14;labelBackgroundColor=none;whiteSpace=wrap;" vertex="1" parent="K3Dzd5Rzt9y4YdTEhxnG-125">
          <mxGeometry x="50" width="449" height="40" as="geometry" />
        </mxCell>
        <mxCell id="K3Dzd5Rzt9y4YdTEhxnG-127" value="8" style="ellipse;whiteSpace=wrap;html=1;aspect=fixed;fillColor=#4D9900;strokeColor=none;labelBackgroundColor=none;" vertex="1" parent="K3Dzd5Rzt9y4YdTEhxnG-125">
          <mxGeometry y="6.5" width="23" height="23" as="geometry" />
        </mxCell>
        <mxCell id="K3Dzd5Rzt9y4YdTEhxnG-128" value="" style="group" vertex="1" connectable="0" parent="1">
          <mxGeometry x="810.5" y="609.5" width="499" height="40" as="geometry" />
        </mxCell>
        <mxCell id="K3Dzd5Rzt9y4YdTEhxnG-129" value="Code includes Terraform scripts and Docker build scripts that register container images stored in Azure." style="text;html=1;align=left;verticalAlign=top;spacingTop=-4;fontSize=14;labelBackgroundColor=none;whiteSpace=wrap;" vertex="1" parent="K3Dzd5Rzt9y4YdTEhxnG-128">
          <mxGeometry x="50" width="449" height="40" as="geometry" />
        </mxCell>
        <mxCell id="K3Dzd5Rzt9y4YdTEhxnG-130" value="9" style="ellipse;whiteSpace=wrap;html=1;aspect=fixed;fillColor=#4D9900;strokeColor=none;labelBackgroundColor=none;" vertex="1" parent="K3Dzd5Rzt9y4YdTEhxnG-128">
          <mxGeometry y="6.5" width="23" height="23" as="geometry" />
        </mxCell>
        <mxCell id="K3Dzd5Rzt9y4YdTEhxnG-131" value="" style="group" vertex="1" connectable="0" parent="1">
          <mxGeometry x="810.5" y="658.5" width="499" height="40" as="geometry" />
        </mxCell>
        <mxCell id="K3Dzd5Rzt9y4YdTEhxnG-132" value="Container performs the ETL from WIISE/Clarity to the TRDW. Logs are recorded so they can be viewed in a TRDW Admin web application." style="text;html=1;align=left;verticalAlign=top;spacingTop=-4;fontSize=14;labelBackgroundColor=none;whiteSpace=wrap;" vertex="1" parent="K3Dzd5Rzt9y4YdTEhxnG-131">
          <mxGeometry x="50" width="449" height="40" as="geometry" />
        </mxCell>
        <mxCell id="K3Dzd5Rzt9y4YdTEhxnG-133" value="10" style="ellipse;whiteSpace=wrap;html=1;aspect=fixed;fillColor=#4D9900;strokeColor=none;labelBackgroundColor=none;" vertex="1" parent="K3Dzd5Rzt9y4YdTEhxnG-131">
          <mxGeometry y="6.5" width="23" height="23" as="geometry" />
        </mxCell>
        <mxCell id="K3Dzd5Rzt9y4YdTEhxnG-134" value="" style="group" vertex="1" connectable="0" parent="1">
          <mxGeometry x="810.5" y="706.5" width="499" height="40" as="geometry" />
        </mxCell>
        <mxCell id="K3Dzd5Rzt9y4YdTEhxnG-135" value="Container performs build of data extract and notebooks, as written to comply to each researcher&#39;s IRB approval, output in Azure Files." style="text;html=1;align=left;verticalAlign=top;spacingTop=-4;fontSize=14;labelBackgroundColor=none;whiteSpace=wrap;" vertex="1" parent="K3Dzd5Rzt9y4YdTEhxnG-134">
          <mxGeometry x="50" width="449" height="40" as="geometry" />
        </mxCell>
        <mxCell id="K3Dzd5Rzt9y4YdTEhxnG-136" value="11" style="ellipse;whiteSpace=wrap;html=1;aspect=fixed;fillColor=#4D9900;strokeColor=none;labelBackgroundColor=none;" vertex="1" parent="K3Dzd5Rzt9y4YdTEhxnG-134">
          <mxGeometry y="6.5" width="23" height="23" as="geometry" />
        </mxCell>
        <mxCell id="K3Dzd5Rzt9y4YdTEhxnG-137" style="edgeStyle=orthogonalEdgeStyle;rounded=0;orthogonalLoop=1;jettySize=auto;html=1;exitX=1;exitY=0.5;exitDx=0;exitDy=0;entryX=1;entryY=1;entryDx=0;entryDy=0;" edge="1" parent="K3Dzd5Rzt9y4YdTEhxnG-134" source="K3Dzd5Rzt9y4YdTEhxnG-136" target="K3Dzd5Rzt9y4YdTEhxnG-136">
          <mxGeometry relative="1" as="geometry" />
        </mxCell>
        <mxCell id="K3Dzd5Rzt9y4YdTEhxnG-138" value="" style="group" vertex="1" connectable="0" parent="1">
          <mxGeometry x="810.5" y="755.5" width="499" height="40" as="geometry" />
        </mxCell>
        <mxCell id="K3Dzd5Rzt9y4YdTEhxnG-139" value="Container serves static content subject to ACL in nginx for researchers authenticated at Azure level using Tufts SSO." style="text;html=1;align=left;verticalAlign=top;spacingTop=-4;fontSize=14;labelBackgroundColor=none;whiteSpace=wrap;" vertex="1" parent="K3Dzd5Rzt9y4YdTEhxnG-138">
          <mxGeometry x="50" width="449" height="40" as="geometry" />
        </mxCell>
        <mxCell id="K3Dzd5Rzt9y4YdTEhxnG-140" value="12" style="ellipse;whiteSpace=wrap;html=1;aspect=fixed;fillColor=#4D9900;strokeColor=none;labelBackgroundColor=none;" vertex="1" parent="K3Dzd5Rzt9y4YdTEhxnG-138">
          <mxGeometry y="6.5" width="23" height="23" as="geometry" />
        </mxCell>
        <mxCell id="K3Dzd5Rzt9y4YdTEhxnG-141" style="edgeStyle=orthogonalEdgeStyle;rounded=0;orthogonalLoop=1;jettySize=auto;html=1;exitX=1;exitY=0.5;exitDx=0;exitDy=0;entryX=1;entryY=1;entryDx=0;entryDy=0;" edge="1" parent="K3Dzd5Rzt9y4YdTEhxnG-138" source="K3Dzd5Rzt9y4YdTEhxnG-140" target="K3Dzd5Rzt9y4YdTEhxnG-140">
          <mxGeometry relative="1" as="geometry" />
        </mxCell>
        <mxCell id="K3Dzd5Rzt9y4YdTEhxnG-142" value="" style="group" vertex="1" connectable="0" parent="1">
          <mxGeometry x="810" y="803.5" width="499" height="40" as="geometry" />
        </mxCell>
        <mxCell id="K3Dzd5Rzt9y4YdTEhxnG-143" value="Container serves internal ETL monitoring and other items. Restricted via both Azure level and also nginx ACL. " style="text;html=1;align=left;verticalAlign=top;spacingTop=-4;fontSize=14;labelBackgroundColor=none;whiteSpace=wrap;" vertex="1" parent="K3Dzd5Rzt9y4YdTEhxnG-142">
          <mxGeometry x="50" width="449" height="40" as="geometry" />
        </mxCell>
        <mxCell id="K3Dzd5Rzt9y4YdTEhxnG-144" value="12" style="ellipse;whiteSpace=wrap;html=1;aspect=fixed;fillColor=#4D9900;strokeColor=none;labelBackgroundColor=none;" vertex="1" parent="K3Dzd5Rzt9y4YdTEhxnG-142">
          <mxGeometry y="6.5" width="23" height="23" as="geometry" />
        </mxCell>
        <mxCell id="K3Dzd5Rzt9y4YdTEhxnG-145" style="edgeStyle=orthogonalEdgeStyle;rounded=0;orthogonalLoop=1;jettySize=auto;html=1;exitX=1;exitY=0.5;exitDx=0;exitDy=0;entryX=1;entryY=1;entryDx=0;entryDy=0;" edge="1" parent="K3Dzd5Rzt9y4YdTEhxnG-142" source="K3Dzd5Rzt9y4YdTEhxnG-144" target="K3Dzd5Rzt9y4YdTEhxnG-144">
          <mxGeometry relative="1" as="geometry" />
        </mxCell>
      </root>
    </mxGraphModel>
  </diagram>
</mxfile>
